<svg xmlns="http://www.w3.org/2000/svg" viewBox="0 0 320.87 226.72"><defs><style>.cls-1{fill:#fff;}.cls-1,.cls-2{fill-rule:evenodd;}</style></defs><g id="Layer_2" data-name="Layer 2"><g id="Layer_1-2" data-name="Layer 1"><path class="cls-1" d="M233.68,150.17l34.09,73.09c.37.8.34,1.31-.11,1.52l-4,1.88c-.4.19-.79-.12-1.17-.92l-35.23-75.57Z"/><path class="cls-1" d="M180.84,150.17l34.09,73.09c.37.8.33,1.31-.11,1.52l-4,1.88c-.4.19-.79-.12-1.17-.92l-35.24-75.57Z"/><path class="cls-1" d="M128,150.17l34.08,73.09c.38.8.34,1.31-.11,1.52l-4,1.88c-.4.19-.78-.12-1.16-.92l-35.24-75.57Z"/><path class="cls-1" d="M75.16,150.17l34.08,73.09c.37.8.34,1.31-.11,1.52l-4,1.88c-.4.19-.79-.12-1.16-.92L68.69,150.17Z"/><path class="cls-1" d="M286.53,150.17l34.08,73.09c.38.8.34,1.31-.11,1.52l-4,1.88c-.4.19-.79-.12-1.16-.92l-35.24-75.57Z"/><path class="cls-2" d="M158.77,3.4a2.47,2.47,0,0,1-.24-.92.54.54,0,0,1,.29-.57l4-1.88c.13-.07.33,0,.59.13a1.65,1.65,0,0,1,.64.76L199.33,76.5h-6.47Z"/><path class="cls-2" d="M105.93,3.4a2.47,2.47,0,0,1-.24-.92.55.55,0,0,1,.28-.57L110,0c.14-.07.34,0,.6.13a1.65,1.65,0,0,1,.64.76L146.49,76.5H140Z"/><path class="cls-2" d="M53.09,3.4a2.71,2.71,0,0,1-.25-.92.56.56,0,0,1,.29-.57l4-1.88c.14-.07.34,0,.59.13a1.54,1.54,0,0,1,.64.76L93.65,76.5H87.18Z"/><path class="cls-2" d="M.25,3.4A2.32,2.32,0,0,1,0,2.48a.56.56,0,0,1,.29-.57L4.33,0c.14-.07.33,0,.59.13a1.59,1.59,0,0,1,.64.76L40.8,76.5H34.33Z"/><path class="cls-2" d="M211.62,3.4a2.5,2.5,0,0,1-.25-.92.56.56,0,0,1,.29-.57l4-1.88c.14-.07.34,0,.59.13a1.59,1.59,0,0,1,.64.76L252.17,76.5H245.7Z"/><path class="cls-2" d="M270.78,107.45l7.31-15.64a5.44,5.44,0,0,1,.31-.53,1,1,0,0,1,.24-.25.62.62,0,0,1,.26-.09,1.48,1.48,0,0,0,.31-.07h11.64a.45.45,0,0,1,.48.46,1.16,1.16,0,0,1-.42.75l-14.33,25.38v16.91a1.24,1.24,0,0,1-1.39,1.42h-9.06a1.18,1.18,0,0,1-.94-.38,1.54,1.54,0,0,1-.33-1v-17l-14.3-25.32a1.1,1.1,0,0,1-.39-.75.52.52,0,0,1,.12-.33.42.42,0,0,1,.33-.13h11.63l.34.07a.59.59,0,0,1,.24.09,1,1,0,0,1,.24.25c.08.11.2.29.34.53ZM204.92,92.2a1.44,1.44,0,0,1,.33-.94,1.25,1.25,0,0,1,1-.39h9.91a2.06,2.06,0,0,1,.88.21,1.93,1.93,0,0,1,.78.73Q221.66,98,225.41,104T233,116.25V92a1.53,1.53,0,0,1,.48-.85,1.35,1.35,0,0,1,.85-.3H243a1.62,1.62,0,0,1,1.06.36,1.18,1.18,0,0,1,.42,1v42.41a1.08,1.08,0,0,1-.36.89,1.57,1.57,0,0,1-1,.29h-9.64a1,1,0,0,1-.69-.28,4.76,4.76,0,0,1-.64-.72l-7.93-13.16c-2.62-4.33-5.26-8.71-8-13.15v26a1.43,1.43,0,0,1-.3,1,1.48,1.48,0,0,1-1.09.33h-8.58a1.25,1.25,0,0,1-1-.38,1.41,1.41,0,0,1-.32-.92Zm-21.61,0a1.44,1.44,0,0,1,.33-.94,1.25,1.25,0,0,1,1-.39h8.92a1.71,1.71,0,0,1,1,.37,1.13,1.13,0,0,1,.52,1v42.26c0,.88-.5,1.33-1.48,1.33h-8.92a1.18,1.18,0,0,1-1.33-1.33Zm-28,12.79c-.38,1-.77,2.13-1.16,3.32s-.78,2.39-1.16,3.6-.77,2.4-1.16,3.58-.79,2.28-1.17,3.31h9.27Zm-5.5-12.94a.91.91,0,0,1,.2-.39,2.6,2.6,0,0,1,.41-.4,2.12,2.12,0,0,1,.51-.28,1.42,1.42,0,0,1,.51-.11h7.74a1.32,1.32,0,0,1,.88.32,3.86,3.86,0,0,1,.54.56l.76,1.72,15.86,41a.88.88,0,0,1-.09,1,1.46,1.46,0,0,1-1.14.38h-8.68a1.88,1.88,0,0,1-1.07-.26,1.71,1.71,0,0,1-.59-.86c-.4-1-.8-2.06-1.18-3.07s-.77-2-1.15-3.07H147.25c-.38,1-.76,2.05-1.16,3.07s-.78,2-1.16,3.07a1.53,1.53,0,0,1-1.55,1.12h-8.91a1.41,1.41,0,0,1-.95-.31.71.71,0,0,1-.14-.9Zm-31.64,13.66a5,5,0,0,0-.34-1.81,6.13,6.13,0,0,0-.92-1.66,5.39,5.39,0,0,0-1.46-1.27,4.82,4.82,0,0,0-1.86-.67l-1.57-.11c-.5,0-1,0-1.61,0h-4.15v11.1h5.53c.36,0,.68,0,1,0l.92-.09a4.74,4.74,0,0,0,1.9-.62,5.14,5.14,0,0,0,1.42-1.24,5.82,5.82,0,0,0,.86-1.66A6.08,6.08,0,0,0,118.15,105.71ZM94.51,92.26a1.45,1.45,0,0,1,.33-1,1.25,1.25,0,0,1,1-.39h19.52A14.64,14.64,0,0,1,121.2,92a15.46,15.46,0,0,1,4.74,3.15,15,15,0,0,1,3.2,4.68,14.24,14.24,0,0,1,1.16,5.7,13.66,13.66,0,0,1-.56,3.92,14.75,14.75,0,0,1-1.56,3.48,14.5,14.5,0,0,1-2.37,2.93,15.39,15.39,0,0,1-3,2.26l7.8,14.64q.21.42.54,1a2.09,2.09,0,0,1,.33,1,.91.91,0,0,1-.31.74,1.34,1.34,0,0,1-.86.26H119.9a1.46,1.46,0,0,1-.92-.31,1.37,1.37,0,0,1-.53-.81l-7.33-13.82h-4.88v13.64c0,.86-.47,1.3-1.39,1.3h-9a1.44,1.44,0,0,1-1-.33,1.22,1.22,0,0,1-.36-1ZM73,92.2a1.44,1.44,0,0,1,.33-.94,1.23,1.23,0,0,1,1-.39h8.92a1.71,1.71,0,0,1,1,.37,1.11,1.11,0,0,1,.52,1v42.26c0,.88-.5,1.33-1.48,1.33H74.29A1.18,1.18,0,0,1,73,134.46ZM53,104.2a4.32,4.32,0,0,0-.33-1.69,4.22,4.22,0,0,0-.94-1.39,4.47,4.47,0,0,0-1.46-1,4.82,4.82,0,0,0-1.84-.34H42v8.76h6.4a5.25,5.25,0,0,0,1.89-.32,3.93,3.93,0,0,0,1.47-.91,4.24,4.24,0,0,0,.95-1.39A4.35,4.35,0,0,0,53,104.2Zm1.64,17.59a5.47,5.47,0,0,0-1.33-3.43,4.87,4.87,0,0,0-1.49-1.16,4,4,0,0,0-1.86-.45H42v10.09h8a4.15,4.15,0,0,0,1.85-.42,5,5,0,0,0,1.49-1.14,5.12,5.12,0,0,0,1-1.61A5.28,5.28,0,0,0,54.65,121.79ZM30.22,92.26a1.42,1.42,0,0,1,.35-1,1.26,1.26,0,0,1,1-.39H51.64a12.69,12.69,0,0,1,5,1,13.08,13.08,0,0,1,6.93,6.92,12.8,12.8,0,0,1,1,5.1,12.1,12.1,0,0,1-.71,4.22,11.53,11.53,0,0,1-2,3.49,15.1,15.1,0,0,1,3.47,4.75,13.47,13.47,0,0,1,1.3,5.84,13,13,0,0,1-1.06,5.21,14.08,14.08,0,0,1-2.86,4.33,13.49,13.49,0,0,1-4.22,2.95,12.21,12.21,0,0,1-5.06,1.09H31.55a1.44,1.44,0,0,1-1-.33,1.22,1.22,0,0,1-.36-1Z"/></g></g></svg>