<svg version="1.2" xmlns="http://www.w3.org/2000/svg" viewBox="0 0 1428 669" width="299" height="140">
	<title>residences-logo-ai</title>
	<style>
		.s0 { fill: #000000 } 
		.s1 { fill: #e7a423 } 
		.s2 { fill: #007c6f } 
	</style>
	<g id="Layer 1">
		<g id="&lt;Group&gt;">
			<g id="&lt;Group&gt;">
				<path id="&lt;Compound Path&gt;" fill-rule="evenodd" class="s0" d="m160.1 630.1c0-0.5 0.4-0.9 0.9-0.9h14c5.9 0 10.7 4.7 10.7 10.5 0 4.6-3 8.2-7.3 9.9l6.8 12.5c0.3 0.6 0 1.4-0.9 1.4h-5.1c-0.5 0-0.7-0.2-0.8-0.4l-6.5-13h-5.5v12.5c0 0.5-0.4 0.9-0.9 0.9h-4.5c-0.5 0-0.9-0.4-0.9-0.9zm14.4 14.7c2.6 0 4.8-2.3 4.8-5 0-2.6-2.2-4.8-4.8-4.8h-8v9.8z"/>
				<path id="&lt;Compound Path&gt;" class="s0" d="m212.3 630.1c0-0.5 0.4-0.9 0.9-0.9h20c0.5 0 0.9 0.4 0.9 0.9v4.1c0 0.4-0.4 0.9-0.9 0.9h-14.5v8h12.1c0.5 0 0.9 0.5 0.9 1v4c0 0.6-0.4 1-0.9 1h-12.1v8.5h14.5c0.5 0 0.9 0.5 0.9 1v4c0 0.5-0.4 0.9-0.9 0.9h-20c-0.5 0-0.9-0.4-0.9-0.9z"/>
				<path id="&lt;Compound Path&gt;" fill-rule="evenodd" class="s0" d="m256.3 662.2l15.2-32.9c0.2-0.3 0.4-0.6 0.9-0.6h0.4c0.5 0 0.7 0.3 0.9 0.6l15.1 32.9c0.3 0.7-0.1 1.3-0.9 1.3h-4.2c-0.8 0-1.1-0.3-1.4-1l-2.4-5.3h-14.7l-2.4 5.3c-0.2 0.5-0.6 1-1.4 1h-4.3c-0.7 0-1.1-0.6-0.8-1.3zm21.2-10.4l-4.9-10.8h-0.2l-4.8 10.8z"/>
				<path id="&lt;Compound Path&gt;" class="s0" d="m312.8 630.1c0-0.5 0.4-0.9 1-0.9h4.5c0.5 0 0.9 0.4 0.9 0.9v27.5h12.5c0.5 0 0.9 0.5 0.9 1v4c0 0.5-0.4 0.9-0.9 0.9h-17.9c-0.6 0-1-0.4-1-0.9z"/>
				<path id="&lt;Compound Path&gt;" class="s0" d="m387.6 630.1c0-0.5 0.4-0.9 1-0.9h19.9c0.6 0 0.9 0.4 0.9 0.9v4.1c0 0.4-0.3 0.9-0.9 0.9h-14.5v8h12.1c0.5 0 0.9 0.5 0.9 1v4c0 0.6-0.4 1-0.9 1h-12.1v8.5h14.5c0.6 0 0.9 0.5 0.9 1v4c0 0.5-0.3 0.9-0.9 0.9h-19.9c-0.6 0-1-0.4-1-0.9z"/>
				<path id="&lt;Compound Path&gt;" class="s0" d="m434.1 658.7l1.7-3c0.4-0.7 1.2-0.7 1.7-0.4 0.2 0.2 4.2 3.1 7.4 3.1 2.5 0 4.4-1.7 4.4-3.8 0-2.5-2.1-4.2-6.2-5.9-4.6-1.9-9.2-4.8-9.2-10.6 0-4.3 3.2-9.4 11-9.4 5 0 8.9 2.6 9.8 3.3 0.5 0.3 0.7 1.1 0.3 1.6l-1.8 2.8c-0.4 0.6-1.2 1-1.7 0.6-0.4-0.2-4.2-2.7-6.9-2.7-2.8 0-4.3 1.9-4.3 3.4 0 2.3 1.8 3.9 5.8 5.5 4.8 1.9 10.2 4.8 10.2 11.1 0 5-4.3 9.7-11.2 9.7-6.2 0-9.8-2.9-10.8-3.8-0.4-0.5-0.7-0.7-0.2-1.5z"/>
				<path id="&lt;Compound Path&gt;" class="s0" d="m486.8 635.1h-7.5c-0.5 0-0.9-0.5-0.9-0.9v-4.1c0-0.5 0.4-0.9 0.9-0.9h21.5c0.5 0 0.9 0.4 0.9 0.9v4.1c0 0.4-0.4 0.9-0.9 0.9h-7.5v27.5c0 0.5-0.5 0.9-1 0.9h-4.5c-0.5 0-1-0.4-1-0.9z"/>
				<path id="&lt;Compound Path&gt;" fill-rule="evenodd" class="s0" d="m520.1 662.2l15.2-32.9c0.2-0.3 0.4-0.6 0.8-0.6h0.5c0.5 0 0.7 0.3 0.9 0.6l15.1 32.9c0.3 0.7-0.1 1.3-0.9 1.3h-4.2c-0.8 0-1.1-0.3-1.5-1l-2.4-5.3h-14.6l-2.4 5.3c-0.2 0.5-0.6 1-1.4 1h-4.3c-0.7 0-1.1-0.6-0.8-1.3zm21.1-10.4l-4.9-10.8h-0.1l-4.8 10.8z"/>
				<path id="&lt;Compound Path&gt;" class="s0" d="m579.4 635.1h-7.5c-0.5 0-0.9-0.5-0.9-0.9v-4.1c0-0.5 0.4-0.9 0.9-0.9h21.4c0.6 0 1 0.4 1 0.9v4.1c0 0.4-0.4 0.9-1 0.9h-7.4v27.5c0 0.5-0.5 0.9-1 0.9h-4.5c-0.5 0-1-0.4-1-0.9z"/>
				<path id="&lt;Compound Path&gt;" class="s0" d="m619 630.1c0-0.5 0.4-0.9 0.9-0.9h20c0.5 0 0.9 0.4 0.9 0.9v4.1c0 0.4-0.4 0.9-0.9 0.9h-14.5v8h12.1c0.4 0 0.9 0.5 0.9 1v4c0 0.6-0.5 1-0.9 1h-12.1v8.5h14.5c0.5 0 0.9 0.5 0.9 1v4c0 0.5-0.4 0.9-0.9 0.9h-20c-0.5 0-0.9-0.4-0.9-0.9z"/>
				<path id="&lt;Compound Path&gt;" fill-rule="evenodd" class="s0" d="m703.8 644.9v-0.1l-1-1.1c-2-2-3.4-4.2-3.4-7 0-3.8 3.1-8 9.3-8 5.5 0 9.2 3.6 9.2 8 0 5.1-5 8-5.9 8.9l5.6 5.7c0.8-1.6 1.4-3.6 1.8-5.4 0.2-1.1 0.4-1.6 1.6-1.3l2.7 0.8c1.2 0.4 0.9 1.4 0.8 1.9-0.8 3.6-2.4 6.7-3 7.8l4.3 4.1c0.6 0.6 1.1 1.2-0.1 2.3l-2 2.1c-0.6 0.5-1.3 0.6-2.1-0.2l-3.6-3.6c-0.8 1.1-4.3 4.2-10.6 4.2-6.3 0-10.4-4.2-10.4-9.2 0-6.5 5.9-9.3 6.8-9.9zm4.2 13.9c3.7 0 5.6-2.1 6.3-2.9l-7.3-7.8c-0.8 0.5-4.2 2.1-4.2 6 0 2.7 2.3 4.7 5.2 4.7zm4.6-21.8c0-1.9-1.6-3.7-4.1-3.7-2.3 0-3.6 1.5-3.6 3.4-0.1 1.7 1 2.8 2.5 4.4l1.1 1c0.7-0.4 4.1-2.1 4.1-5.1z"/>
				<path id="&lt;Compound Path&gt;" class="s0" d="m781.7 630.1c0-0.5 0.4-0.9 0.9-0.9h4.6c0.4 0 0.9 0.4 0.9 0.9v32.5c0 0.5-0.5 0.9-0.9 0.9h-4.6c-0.5 0-0.9-0.4-0.9-0.9z"/>
				<path id="&lt;Compound Path&gt;" class="s0" d="m816.6 629.6c0-0.5 0.5-0.9 0.9-0.9h1.3l20.3 21.7h0.1v-20.3c0-0.5 0.4-0.9 0.9-0.9h4.5c0.5 0 1 0.4 1 0.9v33c0 0.5-0.5 0.9-1 0.9h-1.1l-20.5-22.5h-0.1v21.1c0 0.5-0.4 0.9-0.9 0.9h-4.5c-0.4 0-0.9-0.4-0.9-0.9z"/>
				<path id="&lt;Compound Path&gt;" class="s0" d="m869.6 630.5c-0.3-0.7 0.1-1.3 0.9-1.3h5c0.4 0 0.7 0.3 0.8 0.5l9.4 21.1h0.4l9.4-21.1c0.1-0.2 0.4-0.5 0.8-0.5h5c0.7 0 1.1 0.6 0.8 1.3l-15.2 33c-0.1 0.3-0.4 0.5-0.8 0.5h-0.5c-0.4 0-0.7-0.2-0.8-0.5z"/>
				<path id="&lt;Compound Path&gt;" class="s0" d="m926.2 630.1c0-0.5 0.4-0.9 0.9-0.9h20c0.5 0 0.9 0.4 0.9 0.9v4.1c0 0.4-0.4 0.9-0.9 0.9h-14.5v8h12.1c0.5 0 0.9 0.5 0.9 1v4c0 0.6-0.4 1-0.9 1h-12.1v8.5h14.5c0.5 0 0.9 0.5 0.9 1v4c0 0.5-0.4 0.9-0.9 0.9h-20c-0.5 0-0.9-0.4-0.9-0.9z"/>
				<path id="&lt;Compound Path&gt;" class="s0" d="m972.6 658.7l1.8-3c0.4-0.7 1.2-0.7 1.7-0.4 0.2 0.2 4.2 3.1 7.3 3.1 2.6 0 4.5-1.7 4.5-3.8 0-2.5-2.1-4.2-6.2-5.9-4.6-1.9-9.2-4.8-9.2-10.6 0-4.3 3.2-9.4 11-9.4 5 0 8.8 2.6 9.8 3.3 0.5 0.3 0.6 1.1 0.3 1.6l-1.9 2.8c-0.4 0.6-1.1 1-1.7 0.6-0.4-0.2-4.1-2.7-6.8-2.7-2.8 0-4.3 1.9-4.3 3.4 0 2.3 1.8 3.9 5.8 5.5 4.7 1.9 10.2 4.8 10.2 11.1 0 5-4.3 9.7-11.3 9.7-6.1 0-9.8-2.9-10.7-3.8-0.5-0.5-0.7-0.7-0.3-1.5z"/>
				<path id="&lt;Compound Path&gt;" class="s0" d="m1025.4 635.1h-7.5c-0.5 0-0.9-0.5-0.9-0.9v-4.1c0-0.5 0.4-0.9 0.9-0.9h21.4c0.6 0 1 0.4 1 0.9v4.1c0 0.4-0.4 0.9-1 0.9h-7.5v27.5c0 0.5-0.4 0.9-0.9 0.9h-4.6c-0.5 0-0.9-0.4-0.9-0.9z"/>
				<path id="&lt;Compound Path&gt;" class="s0" d="m1068 629.5c0-0.4 0.3-0.8 0.8-0.8h0.8c0.4 0 0.7 0.2 0.8 0.5l10.8 23.1c0.1 0 0.1 0 0.2 0l10.8-23.1c0.1-0.3 0.4-0.5 0.8-0.5h0.8c0.5 0 0.8 0.4 0.9 0.8l5.7 32.9c0.2 0.7-0.2 1.1-0.8 1.1h-4.5c-0.4 0-0.8-0.4-0.9-0.7l-2.9-18.6c-0.1 0-0.2 0-0.2 0l-8.5 19.3c-0.1 0.3-0.4 0.5-0.9 0.5h-0.9c-0.4 0-0.6-0.2-0.8-0.5l-8.7-19.3c0 0-0.1 0-0.1 0l-2.9 18.6c0 0.3-0.4 0.7-0.8 0.7h-4.4c-0.7 0-1.1-0.4-1-1.1z"/>
				<path id="&lt;Compound Path&gt;" class="s0" d="m1126.8 630.1c0-0.5 0.4-0.9 0.9-0.9h19.9c0.6 0 1 0.4 1 0.9v4.1c0 0.4-0.4 0.9-1 0.9h-14.5v8h12.1c0.5 0 1 0.5 1 1v4c0 0.6-0.5 1-1 1h-12.1v8.5h14.5c0.6 0 1 0.5 1 1v4c0 0.5-0.4 0.9-1 0.9h-19.9c-0.5 0-0.9-0.4-0.9-0.9z"/>
				<path id="&lt;Compound Path&gt;" class="s0" d="m1175.2 629.6c0-0.5 0.4-0.9 0.9-0.9h1.3l20.3 21.7h0.1v-20.3c0-0.5 0.4-0.9 0.9-0.9h4.5c0.5 0 1 0.4 1 0.9v33c0 0.5-0.5 0.9-1 0.9h-1.2l-20.4-22.5h-0.1v21.1c0 0.5-0.4 0.9-0.9 0.9h-4.5c-0.5 0-0.9-0.4-0.9-0.9z"/>
				<path id="&lt;Compound Path&gt;" class="s0" d="m1237.3 635.1h-7.5c-0.5 0-0.9-0.5-0.9-0.9v-4.1c0-0.5 0.4-0.9 0.9-0.9h21.4c0.5 0 0.9 0.4 0.9 0.9v4.1c0 0.4-0.4 0.9-0.9 0.9h-7.5v27.5c0 0.5-0.4 0.9-0.9 0.9h-4.6c-0.5 0-0.9-0.4-0.9-0.9z"/>
			</g>
			<g id="&lt;Group&gt;">
				<path id="&lt;Compound Path&gt;" fill-rule="evenodd" class="s1" d="m6.8 472.5v-3.8q4.8-1.2 6.4-2.7 1.6-1.5 2.1-4.3 0.5-2.8 0.5-8.5v-67q0-5.3-0.4-7.7-0.3-2.5-1.2-3.8-0.9-1.4-2.4-2.2-1.5-0.8-5-1.8v-3.8h42.3q12.3 0 19.8 2.6 7.5 2.7 11.1 7.8 3.6 5.1 3.6 13.3 0 6.7-2.6 11.7-2.6 4.9-6.7 8.2-4.2 3.2-10.8 6v0.7q10.5 3.2 15.9 9.8 5.5 6.6 5.5 15.7 0 10.6-4.7 17.2-4.7 6.7-13.1 9.6-8.5 3-20.5 3zm37.1-58.2q11.8-0.1 18-5.7 6.2-5.7 6.2-16.6 0-5.3-1.7-8.8-1.8-3.5-4.8-5.6-3.1-2.1-7.3-3-4.1-0.9-9-0.9-2.9 0-7.8 0.2-4.7 0.1-7.1 0.3v40.1zm-13.6 50.9q5.7 0.5 12.6 0.5 10.2 0 15.8-2.5 5.6-2.6 8.1-7.6 2.5-5 2.5-12.5 0-7.5-2.7-12.4-2.8-4.8-8.5-7.2-5.7-2.4-15.8-2.4h-12z"/>
				<path id="&lt;Compound Path&gt;" fill-rule="evenodd" class="s1" d="m146.5 461.5l-1.1-0.4q-6.8 6.9-12.7 9.8-5.9 2.9-12.6 2.9-5.8 0-10.3-2.3-4.5-2.3-6.9-6.5-2.4-4.1-2.4-9.5 0-11.3 11.2-17.5 11.2-6.1 33.5-7.1v-5q0-8.1-1.5-12.7-1.6-4.7-4.9-6.8-3.3-2.2-8.9-2.2-6 0-9.7 3.2-3.7 3.1-5.5 9.5h-10.2v-10.1q7.4-3.8 12.4-5.7 5-1.8 9.9-2.8 5-1.1 10.1-1.1 7.6 0 12.3 2.5 4.6 2.4 6.9 7.4 2.4 5.1 2.4 15.2v26.9q0 5.8 0 8.1 0.1 2.4 0.5 4.4 0.4 2 1.2 3.2 0.7 1.2 2.2 2 1.5 0.9 4.9 1.8v3.8h-21.1zm-1.4-24.2q-15.7 0.2-23.5 4.2-7.8 4-7.8 12.1 0 4.4 1.8 7 1.8 2.5 4.5 3.5 2.7 1 6.4 1 5.2 0 9.5-2.6 4.3-2.5 6.7-6.5 2.4-3.9 2.4-7.8z"/>
				<path id="&lt;Path&gt;" class="s1" d="m199.8 429.4h2.5q2.6 0 4.2-0.5 1.9-0.7 4.3-2.4 2.3-1.7 6.5-5.6 3.6-3.3 5.4-5.6 1.8-2.4 2.5-4.3 0.7-1.6 0.6-3.3 0-2.3-1.4-3.6-1.4-1.3-4.7-1.8v-3.8h33.4v3.8q-3.6 0.7-7.6 3.2-4 2.5-8.3 6.5l-17.8 16.9 22.3 29.1q3.9 5.1 7 7.5 3.1 2.5 6.9 3.2v3.8h-29.8v-3.8q2.1-0.2 3-0.9 1-0.6 1-2.2 0-1.1-0.4-2.3-0.5-1.1-1.8-3-1.3-1.9-4.8-6.7l-9.2-12.4q-2.6-3.5-3.7-4.6-1.2-1.1-2.4-1.5-1.2-0.5-3.3-0.5h-4.4v18.6q0 6.6 0.7 9.2 0.6 2.6 2.3 4 1.8 1.3 5.7 2.3v3.8h-30.7v-3.8q3.9-1 5.4-2.1 1.5-1.1 2.1-2.6 0.7-1.5 1-4.1 0.2-2.6 0.2-6.7v-64.8q0-7.4-0.1-10.4-0.1-2.9-0.6-5-0.5-2-1.4-3.2-0.9-1.1-2.4-1.8-1.5-0.7-5.4-1.4v-4l18.6-0.8h4.6z"/>
				<path id="&lt;Path&gt;" class="s1" d="m258.5 398.5h22.1v39.4q-0.1 9.1 0.6 13.8 0.7 4.7 2.1 7.1 1.4 2.4 4 4 2.5 1.7 7 1.7 3 0 5.7-1.2 2.7-1.2 6-4.1 3.3-2.9 4.8-5.7 1.4-2.9 1.4-6.7v-29q0-4.4-0.2-6.6-0.3-2.3-0.8-3.6-0.6-1.4-1.3-2.3-0.7-0.8-2.1-1.5-1.3-0.7-4.4-1.5v-3.8h22.1v52.9q0 6 0.2 8.6 0.3 2.6 1 4.2 0.8 1.5 2.4 2.5 1.7 0.9 5.8 1.8v4l-17.7 0.8h-4.7l0.5-12.7-1.2-0.3q-6.4 7-12.3 10.2-5.8 3.3-11.7 3.3-7 0-11.6-2.8-4.5-2.8-6.8-8.4-2.2-5.5-2.2-15.5v-29.3q0-6.5-0.5-8.9-0.5-2.5-2-3.9-1.4-1.4-6.2-2.7z"/>
				<path id="&lt;Path&gt;" class="s1" d="m455.9 369.1v21.5h-7.7q-1.8-6.8-4.7-10.7-2.8-4-6.6-5.7-3.8-1.7-9.2-1.7-7.9 0-14.2 5.3-6.2 5.3-9.8 15.9-3.5 10.6-3.5 25.7 0 15.2 2.9 25.9 3 10.7 8.7 16.2 5.7 5.4 14.1 5.4 6.3 0 10.3-1.8 4.1-1.8 6.8-5.7 2.8-4 5.2-11.6h7.7v22.1q-7.3 1.9-14.9 2.9-7.6 1-16.8 1-19.6 0-29.7-13.4-10-13.3-10-39.7 0-16.5 5.2-29 5.2-12.4 15.4-19.2 10.1-6.8 24.2-6.8 7 0 13 0.7 5.9 0.7 13.6 2.7z"/>
				<path id="&lt;Compound Path&gt;" class="s1" d="m471.9 468.7q3-0.9 4.3-1.6 1.3-0.7 2.2-1.9 0.9-1.3 1.4-3.8 0.5-2.6 0.5-8v-33.7q0-5-0.2-8-0.1-3-1.1-4.8-0.9-1.9-2.8-2.8-1.9-0.8-5.4-1.5v-4.1l18.1-0.7h4.7v55.4q0 6.6 0.6 9.2 0.6 2.6 2.4 4 1.7 1.3 5.6 2.3v3.8h-30.3zm22.1-85.5h-14.2v-15h14.2z"/>
				<path id="&lt;Path&gt;" class="s1" d="m511.3 402.4q3.9-0.6 6.3-2.2 2.4-1.5 3.7-3.9 1.4-2.5 2.1-6.2 0.8-3.6 1.7-10.7h11v19.1h25v7.9h-25v34.4q0 7.5 0.6 11.9 0.6 4.5 2.3 7 1.7 2.5 3.9 3.6 2.1 1.1 5.5 1.1 3.1 0 5.8-1.3 2.7-1.3 5.4-3.7l3.5 4.2q-5.5 5.4-10.4 7.8-5 2.4-10.2 2.4-10 0-14.9-6-4.9-5.9-4.9-18.5v-42.9h-11.4z"/>
				<path id="&lt;Path&gt;" class="s1" d="m602.3 478.9q-4.3 9.6-8.3 15.5-4 6-8.8 9-4.9 3-11.5 3-4.3 0-9.6-1v-15.3h6.9q0.9 3.2 2.3 4.4 1.4 1.2 4 1.2 2.3 0 4.1-0.9 1.9-0.9 3.8-3 2-2.2 4.7-6.7 2.6-4.5 6-11.3l-21.7-58.3q-2.1-5.7-3.4-7.9-1.2-2.3-2.7-3.4-1.5-1.2-4.5-1.9v-3.8h31.5v3.8q-3.6 0.9-5.1 1.7-1.5 0.8-2.2 2.1-0.7 1.3-0.7 3.3 0 2.1 0.5 4.3 0.5 2.3 1.6 5.3l13.8 38.7 15.5-37.1q1.3-3.1 2-5.7 0.8-2.6 0.7-4.8 0-3.4-1.8-5.1-1.8-1.7-6.3-2.7v-3.8h29v3.8q-3.1 0.7-4.7 1.9-1.6 1.3-3.2 4-1.7 2.8-3.9 7.8z"/>
				<path id="&lt;Compound Path&gt;" fill-rule="evenodd" class="s1" d="m709.8 426.6v26.3q0 5.6 0.4 8.1 0.4 2.5 1.3 3.8 0.8 1.3 2.3 2.1 1.5 0.8 5 1.8v3.8h-32.6v-3.8q4.8-1.2 6.4-2.7 1.6-1.5 2.1-4.3 0.5-2.8 0.5-8.5v-67q0-5.3-0.4-7.7-0.3-2.5-1.2-3.8-0.9-1.4-2.4-2.2-1.5-0.8-5-1.8v-3.8h38.3q18.1 0 27.1 6.6 8.9 6.5 8.9 20.4 0 10.6-5.8 18-5.8 7.5-17.5 11.6v0.7q4.7 1.9 8.1 5.5 3.3 3.6 7.4 11.2l7 12.7q3 5.5 5.2 8.5 2.1 2.9 4.4 4.5 2.2 1.5 5.9 2.1v3.8h-21.4q-2.9-4.1-5.6-8.8-2.6-4.7-5.1-9.6l-6.9-12.9q-3.1-5.9-5-8.7-2-2.8-3.7-3.9-1.6-1.1-3.5-1.5-1.9-0.5-5.7-0.5zm0-52.6v46h8.7q6.8 0 11-1 4.1-1 7.7-3.7 3.5-2.7 5.7-7.5 2.1-4.8 2.1-11.9 0-7.3-2.5-12.2-2.5-4.9-7.6-7.4-5.1-2.6-13.8-2.6-7 0-11.3 0.3z"/>
				<path id="&lt;Compound Path&gt;" fill-rule="evenodd" class="s1" d="m841.7 459.4q-5 5.1-9.1 8.1-4.1 2.9-9.1 4.6-4.9 1.7-10.9 1.7-15.9 0-24.1-9.6-8.1-9.6-8.1-28.2 0-11.5 4.2-20.4 4.1-8.8 11.8-13.6 7.6-4.8 17.6-4.8 7.8 0 13.3 2.5 5.5 2.5 8.8 6.8 3.3 4.3 5.1 10.8 1.8 6.5 2 17.1h-48.7v1.4q0 9.1 2 15.3 2.1 6.3 6.8 9.8 4.7 3.5 12.2 3.5 6.3 0 11.4-2.4 5-2.3 10.1-7.7zm-13-31.4q-0.5-8.3-2.1-13.6-1.6-5.3-4.9-8.2-3.2-2.8-8.5-2.8-8 0-12.7 6.4-4.8 6.4-5.6 18.2z"/>
				<path id="&lt;Path&gt;" class="s1" d="m909 415.5h-7.4q-1.7-4.7-4-7.3-2.3-2.7-5.3-3.8-2.9-1.1-7.2-1.1-6.2 0-9.8 2.9-3.7 2.9-3.7 8 0 3.5 1.4 5.9 1.5 2.3 4.6 4.3 3.1 2 10.9 5.3 7.9 3.4 12.2 6.3 4.3 2.9 6.7 6.6 2.5 3.8 2.5 9.1 0 6.1-2.1 10.3-2.1 4.2-5.9 6.8-3.8 2.6-9 3.8-5.2 1.2-11.4 1.2-6.5 0-12.6-1-6.1-1-12-2.5v-16.2h7.6q2.1 7.1 6.2 10.3 4.1 3.2 11.3 3.2 2.8 0 5.5-0.5 2.6-0.6 4.7-2 2.1-1.3 3.4-3.6 1.2-2.4 1.2-5.9 0-3.9-1.5-6.4-1.6-2.5-4.8-4.5-3.3-2.1-11.5-5.5-7-3-11.3-5.8-4.2-2.7-6.7-6.5-2.4-3.8-2.4-9 0-6.4 3.4-11 3.5-4.7 10-7.2 6.5-2.5 15.2-2.5 5.1 0 9.9 0.5 4.7 0.5 11.9 2z"/>
				<path id="&lt;Path&gt;" class="s1" d="m1420.4 415.5h-7.5q-1.7-4.7-4-7.3-2.3-2.7-5.3-3.8-2.9-1.1-7.1-1.1-6.2 0-9.9 2.9-3.7 2.9-3.7 8 0 3.5 1.5 5.9 1.5 2.3 4.5 4.3 3.1 2 11 5.3 7.8 3.4 12.1 6.3 4.3 2.9 6.8 6.6 2.4 3.8 2.4 9.1 0 6.1-2.1 10.3-2.1 4.2-5.9 6.8-3.7 2.6-9 3.8-5.2 1.2-11.4 1.2-6.5 0-12.6-1-6.1-1-11.9-2.5v-16.2h7.6q2.1 7.1 6.2 10.3 4.1 3.2 11.3 3.2 2.7 0 5.4-0.5 2.7-0.6 4.8-2 2.1-1.3 3.3-3.6 1.2-2.4 1.2-5.9 0-3.9-1.5-6.4-1.6-2.5-4.8-4.5-3.3-2.1-11.5-5.5-7-3-11.3-5.8-4.2-2.7-6.7-6.5-2.4-3.8-2.4-9 0-6.4 3.5-11 3.4-4.7 9.9-7.2 6.5-2.5 15.2-2.5 5.1 0 9.9 0.5 4.8 0.5 12 2z"/>
				<path id="&lt;Compound Path&gt;" class="s1" d="m925.3 468.7q3-0.9 4.3-1.6 1.2-0.7 2.1-1.9 0.9-1.3 1.4-3.8 0.5-2.6 0.5-8v-33.7q0-5-0.1-8-0.2-3-1.1-4.8-0.9-1.9-2.8-2.8-1.9-0.8-5.4-1.5v-4.1l18-0.7h4.7v55.4q0 6.6 0.7 9.2 0.6 2.6 2.3 4 1.8 1.3 5.7 2.3v3.8h-30.3zm22.1-85.5h-14.2v-15h14.2z"/>
				<path id="&lt;Compound Path&gt;" fill-rule="evenodd" class="s1" d="m1021.5 388.4q0-7.4-0.1-10.4-0.1-2.9-0.6-5-0.5-2-1.4-3.2-0.9-1.1-2.4-1.8-1.5-0.7-5.4-1.4v-4l18.7-0.8h4.5v89.6q0 6 0.3 8.6 0.2 2.6 1 4.2 0.7 1.5 2.4 2.5 1.7 0.9 5.9 1.8v4l-18.3 0.8h-4.6l0.9-12.7-1.2-0.3q-4.9 5.2-8.4 7.8-3.7 2.6-7.7 4.1-4.1 1.6-8.7 1.6-12.7 0-19.6-9.7-6.9-9.6-6.9-27.8 0-12.7 4.5-21.5 4.5-8.9 12.1-13.2 7.6-4.4 17.2-4.4 5.1 0 9.2 0.8 4.2 0.9 8.6 2.7zm0 38.2q0-6-0.5-9.6-0.5-3.7-1.8-6.2-1.3-2.4-3.5-4.1-2.1-1.7-4.7-2.5-2.6-0.8-6.3-0.8-9.9 0-15 7.9-5.2 8-5.2 22.8 0 14.9 4.2 22.6 4.3 7.8 12.9 7.8 3.4 0 5.7-0.6 2.2-0.6 4.4-1.9 2.2-1.2 4.4-3.5 2.3-2.2 3.3-4.1 1.1-1.8 1.6-4.2 0.5-2.4 0.5-6.2z"/>
				<path id="&lt;Compound Path&gt;" fill-rule="evenodd" class="s1" d="m1119 459.4q-4.9 5.1-9.1 8.1-4.1 2.9-9.1 4.6-4.9 1.7-10.9 1.7-15.9 0-24-9.6-8.2-9.6-8.2-28.2 0-11.5 4.2-20.4 4.1-8.8 11.8-13.6 7.6-4.8 17.6-4.8 7.8 0 13.3 2.5 5.5 2.5 8.8 6.8 3.3 4.3 5.1 10.8 1.8 6.5 2.1 17.1h-48.8v1.4q0 9.1 2.1 15.3 2 6.3 6.7 9.8 4.7 3.5 12.2 3.5 6.4 0 11.4-2.4 5.1-2.3 10.1-7.7zm-13-31.4q-0.5-8.3-2.1-13.6-1.6-5.3-4.9-8.2-3.2-2.8-8.5-2.8-7.9 0-12.7 6.4-4.8 6.4-5.6 18.2z"/>
				<path id="&lt;Path&gt;" class="s1" d="m1209.9 472.5h-30.5v-3.8q3-0.9 4.3-1.6 1.3-0.7 2.2-1.9 0.9-1.3 1.4-3.9 0.5-2.6 0.5-7.8v-20.3q0-5.4-0.3-9.8-0.3-4.4-1-7.3-0.8-2.8-1.8-4.4-1.1-1.6-2.5-2.7-1.4-1.1-3.3-1.8-1.8-0.6-4.9-0.6-3 0-5.7 1.2-2.7 1.2-5.9 4.1-3.3 3-4.8 5.8-1.4 2.9-1.4 6.6v28.9q0 6.6 0.6 9.2 0.6 2.6 2.4 4 1.7 1.3 5.6 2.3v3.8h-30.3v-3.8q3-0.9 4.3-1.6 1.3-0.7 2.2-1.9 0.9-1.3 1.4-3.8 0.5-2.6 0.5-8v-33.7q0-5-0.2-8-0.2-3-1.1-4.8-0.9-1.9-2.8-2.7-1.9-0.9-5.4-1.6v-4.1l18.1-0.7h4.7l-0.8 12.7 1.1 0.3q5.7-5.8 9.2-8.3 3.5-2.5 7.2-3.8 3.5-1.4 7.6-1.4 4.2 0 7.4 1 3.3 0.9 5.8 2.9 2.6 2.1 4.2 5 1.6 3 2.4 7.2 0.8 4.2 0.8 10.6v29.2q0 5.3 0.3 7.7 0.3 2.4 1.1 3.7 0.8 1.3 2.3 2.2 1.4 0.9 5.1 1.9z"/>
				<path id="&lt;Path&gt;" class="s1" d="m1280.6 400.3v16.2h-9.8q-1.3-5-3.3-7.9-1.9-2.9-4.5-4.1-2.5-1.2-6.3-1.2-5.4 0-9.6 3.5-4.2 3.5-6.6 10.6-2.5 7.1-2.5 17.4 0 6.6 1 12.1 0.9 5.4 3.1 9.3 2.3 3.9 6 6 3.7 2.2 9.2 2.2 5.4 0 10-2.1 4.6-2.1 9.5-7.3l4.4 5.1q-3.9 4.3-6.9 6.7-3.1 2.3-6.5 3.9-3.5 1.6-6.8 2.3-3.4 0.8-7.3 0.8-14.6 0-22.4-9.8-7.7-9.7-7.7-28 0-11.5 4.3-20.3 4.3-8.9 12.2-13.7 7.8-4.8 18-4.8 6.3 0 11.7 0.8 5.4 0.7 10.8 2.3z"/>
				<path id="&lt;Compound Path&gt;" fill-rule="evenodd" class="s1" d="m1354.7 459.4q-5 5.1-9.1 8.1-4.2 2.9-9.1 4.6-5 1.7-10.9 1.7-16 0-24.1-9.6-8.1-9.6-8.1-28.2 0-11.5 4.1-20.4 4.2-8.8 11.8-13.6 7.7-4.8 17.6-4.8 7.9 0 13.4 2.5 5.5 2.5 8.7 6.8 3.3 4.3 5.1 10.8 1.9 6.5 2.1 17.1h-48.8v1.4q0 9.1 2.1 15.3 2.1 6.3 6.7 9.8 4.7 3.5 12.2 3.5 6.4 0 11.4-2.4 5.1-2.3 10.1-7.7zm-13-31.4q-0.4-8.3-2.1-13.6-1.6-5.3-4.8-8.2-3.3-2.8-8.5-2.8-8 0-12.8 6.4-4.7 6.4-5.6 18.2z"/>
			</g>
			<path id="&lt;Path&gt;" class="s2" d="m928.4 557.5h-428.8v-3.3h428.8z"/>
			<path id="&lt;Compound Path&gt;" fill-rule="evenodd" class="s2" d="m676 250.4c-1 0.9-2.2 1.9-3.2 2.9-10.1 10.1-20.3 20.1-30.2 30.3-3 3.1-4.8 2.8-7.7-0.1q-65.8-66.1-131.9-131.9c-3.3-3.2-2.9-5 0.1-8q66.2-65.9 132-132c3.2-3.2 5-2.8 8 0.2 43.7 44 87.6 87.8 131.6 131.6 3.4 3.4 2.9 5.2-0.2 8.3-13 12.7-25.6 25.7-38.6 38.3-3.1 3-2.9 4.8 0.1 7.6 4.6 4.1 8.9 8.6 13.2 13.1 1.8 1.8 3.1 1.9 5 0.1 20.2-20.4 40.5-40.6 60.9-60.8 2.5-2.6 1-3.9-0.7-5.7q-21.4-21.4-42.6-42.8c-23.8-24-47.6-48.2-71.5-72.1-3.2-3.2-3.3-5.2 0-8.1 3.7-3.2 7.1-6.7 10.3-10.3 2.5-2.7 4.4-2.6 7 0 9.8 10.1 20 19.9 29.7 30 3.3 3.5 5.3 3.8 8.8 0.2 9.6-10.1 19.6-19.7 29.3-29.7 2.6-2.6 4.3-3.2 7.3-0.2q66.2 66.5 132.6 132.7c2.6 2.6 2.7 4.2 0 6.9-44 44.1-88 88.3-131.9 132.5-3.3 3.3-5.1 2.9-8.1-0.1q-65.8-66.1-132-131.9c-3.3-3.3-2.8-5.1 0.2-8 13.1-12.8 25.9-25.9 38.9-38.7 2.9-2.8 2.8-4.5-0.1-7.1-4.6-4.2-8.9-8.7-13.1-13.2-1.9-2-3.3-2.2-5.4-0.1q-30.1 30.4-60.4 60.5c-2 2-2.2 3.4-0.1 5.3 2.5 2.3 4.8 4.8 7.1 7.2q53.5 53.5 107 107c4.8 4.8 4.8 4.8 0.2 9.5-3.3 3.3-6.8 6.5-9.9 10-2.7 3.1-4.7 2.6-7.3-0.2-10.1-10.3-20.4-20.4-30.6-30.6-1-1-1.9-2.3-3.8-2.6zm-36.8-0.5c0.9-0.7 2-1.5 2.9-2.4 3.8-3.8 7.6-7.6 11.4-11.4 4.7-4.7 4.7-4.7 0.1-9.3q-37.2-37.2-74.3-74.3c-5-5-5-5 0.1-10.2q14.6-14.5 29.1-29.1c15.3-15.3 30.6-30.6 46-45.8 2.9-2.9 3.1-4.9 0-7.7-4.3-3.8-8.3-7.8-12.1-12.1-2.6-2.9-4.3-2.5-6.8 0.1q-48.1 48.3-96.4 96.4c-2.8 2.8-2.7 4.5 0.1 7.2 10.6 10.3 20.9 20.8 31.3 31.3q32 32 64 64c1.3 1.2 2.3 2.9 4.6 3.3zm150.4 0c1.3-0.3 2.3-1.5 3.3-2.6q10.5-10.4 21-20.9c24.9-24.9 49.7-49.8 74.7-74.6 3.1-3.1 3.5-5.1 0.1-8.1-4-3.5-7.6-7.5-11.4-11.3q-41.8-41.8-83.6-83.5c-4.5-4.6-4.5-4.6-9.2 0.1-3.3 3.3-6.4 6.9-10 9.9-3.9 3.2-3.9 5.5-0.2 9.2 24.8 24.4 49.4 49.2 74.1 73.8 5.5 5.5 5.5 5.6 0.1 10.9q-37 37-73.9 74c-4.6 4.6-4.6 4.6 0.1 9.3q5.7 5.7 11.4 11.4c0.9 0.9 1.8 2.1 3.5 2.4zm-48-102.4c-0.6-0.8-1-1.6-1.6-2.1-7.9-8-15.8-15.9-23.7-23.8-1.8-1.8-3.2-1.2-4.7 0.3-7.7 7.7-15.3 15.4-23.1 23.1-1.8 1.8-1.9 3.1 0 4.9q11.4 11.3 22.7 22.7c2.1 2.2 3.7 2.2 5.8 0 7.5-7.6 15.1-15.1 22.7-22.7 0.7-0.7 1.2-1.5 1.9-2.4z"/>
		</g>
	</g>
</svg>